<svg data-v-423bf9ae="" xmlns="http://www.w3.org/2000/svg" viewBox="0 0 235.16328267959926 60" class="font"><!----><!----><!----><g data-v-423bf9ae="" id="3616c863-bd96-4e51-9f7f-4046c154adff" fill="black" transform="matrix(6.122449456230433,0,0,6.122449456230433,-0.7346901726302519,-11.816328097660907)"><path d="M0.12 8.85L0.12 1.93L2.06 1.93L2.06 5.95L1.69 5.95L1.69 10.10L4.58 10.10L4.58 10.97L4.01 10.97L4.01 11.17L4.58 11.17L4.58 11.73L2.71 11.73L2.71 11.58L0.14 11.58L0.14 11.58Q0.12 11.42 0.12 11.33L0.12 11.33L0.12 9.15L0.62 9.15L0.62 8.85L0.12 8.85ZM1.95 9.79L1.82 9.59L1.93 9.59L1.93 9.59Q2.02 9.71 2.03 9.71L2.03 9.71L2.03 9.71Q2.08 9.59 2.11 9.59L2.11 9.59L2.21 9.59L2.21 9.59Q2.19 9.65 2.08 9.79L2.08 9.79L2.08 9.79Q2.12 9.86 2.23 10.02L2.23 10.02L2.11 10.02L2.11 10.02Q2.03 9.95 2.03 9.88L2.03 9.88L2.03 9.88Q2.02 9.88 1.91 10.02L1.91 10.02L1.82 10.02L1.82 10.00L1.95 9.80L1.95 9.79ZM4.58 11.17L4.58 10.97L5.29 10.97L5.29 11.17L4.58 11.17ZM5.83 1.93L5.83 1.93L7.68 1.93L7.68 1.93Q7.70 1.94 7.70 1.97L7.70 1.97L7.70 6.73L7.70 6.73Q7.70 6.76 7.68 6.76L7.68 6.76L7.46 6.76L7.46 11.70L7.46 11.70Q7.46 11.73 7.42 11.73L7.42 11.73L5.83 11.73L5.83 11.73Q5.80 11.73 5.80 11.70L5.80 11.70L5.80 6.64L5.30 6.64L5.30 6.64Q5.27 6.64 5.27 6.61L5.27 6.61L5.27 6.40L5.27 6.40Q5.28 6.36 5.30 6.36L5.30 6.36L5.80 6.36L5.80 1.97L5.80 1.97Q5.80 1.93 5.83 1.93ZM6.75 6.36L5.81 6.36L5.81 6.64L6.75 6.64L6.75 6.36ZM8.29 1.96L8.29 1.96L10.28 1.96L10.28 1.96Q10.32 1.96 10.92 3.53L10.92 3.53L10.92 3.53Q10.97 3.59 12.18 6.62L12.18 6.62L12.69 6.62L12.69 1.96L14.44 1.96L14.44 7.51L14.64 7.51L14.64 9.67L13.93 9.67L13.93 10.08L14.64 10.08L14.64 11.37L12.02 11.37L12.02 9.73L11.55 9.73L11.55 9.73Q10.61 7.44 10.28 6.56L10.28 6.56L10.28 4.92L10.04 4.92L10.04 9.93L9.64 9.93L9.64 11.66L8.00 11.66L8.00 7.94L8.30 7.94L8.30 7.92L8.30 7.92Q8.29 3.09 8.29 1.96ZM12.15 6.62L11.22 6.62L11.22 6.98L12.31 6.98L12.31 6.98Q12.18 6.62 12.15 6.62L12.15 6.62ZM13.50 6.62L12.71 6.62L12.71 6.98L12.33 6.98L12.33 6.98Q12.67 7.85 12.74 8.11L12.74 8.11L12.76 8.11L12.76 8.07L12.76 8.07Q12.71 7.18 12.71 6.98L12.71 6.98L13.50 6.98L13.50 6.62ZM12.02 11.73L12.02 11.55L15.18 11.55L15.18 11.73L12.02 11.73ZM18.96 1.96L18.96 1.96L18.98 1.96L18.98 1.96Q21.16 1.96 21.65 3.38L21.65 3.38L21.65 3.38Q21.88 3.91 21.88 4.87L21.88 4.87L20.29 5.09L20.27 5.05L20.27 5.02L20.27 5.02Q20.27 3.86 19.49 3.64L19.49 3.64L19.49 3.64Q19.26 3.58 18.91 3.56L18.91 3.56L18.91 3.56Q18.07 3.56 17.82 4.47L17.82 4.47L17.82 4.47Q17.68 5.07 17.68 5.89L17.68 5.89L17.68 6.66L17.68 6.66Q17.68 7.99 17.71 8.67L17.71 8.67L18.12 8.67L18.12 10.03L20.06 10.03L20.06 7.70L18.83 7.70L18.83 6.45L22.52 6.45L22.52 6.72L22.04 6.72L22.04 8.16L21.05 8.16L21.05 8.62L21.53 8.62L21.53 11.39L16.25 11.39L16.25 9.91L15.65 9.91L15.65 9.78L15.91 9.78L15.91 9.64L16.25 9.64L16.25 9.08L15.33 9.08L15.33 7.90L15.76 7.90L15.76 7.90Q15.75 7.38 15.75 7.31L15.75 7.31L15.75 7.31Q15.75 4.20 16.08 3.56L16.08 3.56L16.08 3.56Q16.19 3.15 16.65 2.67L16.65 2.67L16.65 2.67Q17.34 1.96 18.96 1.96ZM17.61 11.73L17.61 11.54L19.62 11.54L19.62 11.73L17.61 11.73ZM23.07 6.62L23.07 1.94L26.04 1.94L26.04 1.94Q27.91 1.94 28.62 3.21L28.62 3.21L28.62 3.21Q29.20 4.20 29.20 6.48L29.20 6.48L29.50 6.48L29.50 8.82L26.61 8.82L26.61 8.56L27.51 8.56L27.51 6.48L27.25 6.48L27.25 5.63L27.25 5.63Q27.25 4.18 26.61 3.79L26.61 3.79L26.61 3.79Q26.22 3.57 25.39 3.57L25.39 3.57L24.99 3.57L24.99 6.43L25.26 6.43L25.26 8.82L23.30 8.82L23.30 6.62L23.07 6.62ZM27.30 8.09L27.30 8.09L27.39 8.09L27.39 8.34L27.45 8.34L27.45 8.42L27.39 8.42L27.39 8.52L27.30 8.52L27.30 8.42L27.12 8.42L27.12 8.36L27.12 8.36Q27.30 8.11 27.30 8.09ZM27.21 8.34L27.21 8.34L27.30 8.34L27.30 8.24L27.30 8.24Q27.28 8.24 27.21 8.34ZM25.48 8.54L25.35 8.33L25.45 8.33L25.45 8.33Q25.47 8.33 25.55 8.44L25.55 8.44L25.55 8.44Q25.62 8.36 25.62 8.33L25.62 8.33L25.73 8.33L25.73 8.34L25.73 8.34Q25.62 8.50 25.62 8.54L25.62 8.54L25.75 8.75L25.62 8.75L25.62 8.75Q25.62 8.70 25.54 8.62L25.54 8.62L25.54 8.62Q25.48 8.74 25.44 8.75L25.44 8.75L25.34 8.75L25.34 8.75Q25.45 8.55 25.48 8.54L25.48 8.54ZM22.20 9.13L22.20 8.82L23.08 8.82L23.08 9.13L25.26 9.13L25.26 9.78L26.61 9.78L26.61 9.13L29.50 9.13L29.50 9.78L27.51 9.78L27.51 11.52L25.26 11.52L25.26 11.73L23.10 11.73L23.10 11.73Q23.07 11.73 23.07 11.70L23.07 11.70L23.07 9.13L22.20 9.13ZM25.26 9.13L25.26 8.82L26.61 8.82L26.61 9.13L25.26 9.13ZM29.50 9.13L29.50 8.82L31.42 8.82L31.42 9.13L29.50 9.13ZM27.74 9.84L27.74 9.84L27.86 9.84L27.86 9.84Q27.97 10.16 28 10.28L28 10.28L27.92 10.28L27.92 10.28Q27.89 10.28 27.87 10.19L27.87 10.19L27.74 10.19L27.74 10.19Q27.71 10.19 27.69 10.28L27.69 10.28L27.59 10.28L27.59 10.27L27.59 10.27Q27.59 10.25 27.74 9.84ZM28.12 9.84L28.12 9.84L28.22 9.84L28.30 10.12L28.31 10.12L28.31 10.12Q28.31 10.09 28.40 9.84L28.40 9.84L28.50 9.84L28.50 9.84Q28.50 9.89 28.36 10.28L28.36 10.28L28.27 10.28L28.27 10.28Q28.23 10.28 28.12 9.84ZM28.66 10.28L28.66 9.84L28.78 9.84L28.78 10.28L28.66 10.28ZM28.97 10.28L28.97 9.84L29.16 9.84L29.16 9.84Q29.37 9.84 29.37 10.08L29.37 10.08L29.37 10.08Q29.37 10.25 29.16 10.28L29.16 10.28L28.97 10.28ZM29.19 9.94L29.09 9.94L29.09 10.19L29.19 10.19L29.19 10.19Q29.21 10.19 29.25 10.12L29.25 10.12L29.25 10.00L29.25 10.00Q29.25 9.98 29.19 9.94L29.19 9.94ZM27.81 9.97L27.79 9.97L27.79 9.97Q27.79 9.99 27.75 10.10L27.75 10.10L27.84 10.10L27.84 10.10Q27.81 9.99 27.81 9.97L27.81 9.97ZM30.53 6.80L30.53 2.00L35.32 2.00L35.32 3.60L35.32 3.60Q35.32 3.63 35.29 3.63L35.29 3.63L32.44 3.63L32.44 5.74L34.99 5.74L34.99 5.76L34.99 5.76Q34.99 5.84 34.97 6.79L34.97 6.79L34.97 6.79Q34.95 6.79 34.95 6.80L34.95 6.80L35.06 6.80L35.06 7.29L32.85 7.29L32.85 9.29L32.26 9.29L32.26 9.49L32.85 9.49L32.85 10.10L35.36 10.10L35.36 10.32L35.16 10.32L35.16 11.52L32.16 11.52L32.16 11.73L30.74 11.73L30.74 8.24L30.53 8.24L30.53 7.01L28.97 7.01L28.97 6.80L30.53 6.80ZM31.34 6.80L30.54 6.80L30.54 7.01L31.34 7.01L31.34 6.80ZM36.65 1.93L36.65 1.93L38.50 1.93L38.50 1.93Q38.53 1.94 38.53 1.97L38.53 1.97L38.53 6.73L38.53 6.73Q38.53 6.76 38.50 6.76L38.50 6.76L38.28 6.76L38.28 11.70L38.28 11.70Q38.28 11.73 38.25 11.73L38.25 11.73L36.65 11.73L36.65 11.73Q36.62 11.73 36.62 11.70L36.62 11.70L36.62 6.64L36.13 6.64L36.13 6.64Q36.09 6.64 36.09 6.61L36.09 6.61L36.09 6.40L36.09 6.40Q36.10 6.36 36.13 6.36L36.13 6.36L36.62 6.36L36.62 1.97L36.62 1.97Q36.63 1.93 36.65 1.93ZM37.58 6.36L36.63 6.36L36.63 6.64L37.58 6.64L37.58 6.36Z"></path></g><!----><!----></svg>